Coordinates
version=1
nRows=14
nColumns=36
inDegrees=yes

Units are S.I. units (second, meters, Newtons, ...)
If the header above contains a line with 'inDegrees', this indicates whether rotational values are in degrees (yes) or radians (no).

endheader
time	pelvis_tilt	pelvis_list	pelvis_rotation	pelvis_tx	pelvis_ty	pelvis_tz	hip_flexion_r	hip_adduction_r	hip_rotation_r	knee_angle_r	knee_angle_r_beta	ankle_angle_r	subtalar_angle_r	mtp_angle_r	hip_flexion_l	hip_adduction_l	hip_rotation_l	knee_angle_l	knee_angle_l_beta	ankle_angle_l	subtalar_angle_l	mtp_angle_l	lumbar_extension	lumbar_bending	lumbar_rotation	arm_flex_r	arm_add_r	arm_rot_r	elbow_flex_r	pro_sup_r	arm_flex_l	arm_add_l	arm_rot_l	elbow_flex_l	pro_sup_l
      0.73000000	      1.51303961	      2.07415219	     -2.36101913	      0.75413458	      1.02491576	     -0.13637473	    -10.57967717	     -0.44763323	     -4.60137509	     41.03030108	      0.71611385	     -0.76118022	     -2.06145143	     -6.78702579	     21.01563552	      2.57210342	      3.31457364	     17.32949889	      0.30245681	     -4.32121336	     -5.87477518	     -6.78702579	    -12.04103748	    -20.81997341	     -8.00872438	    -19.85931362	     -6.88830535	    -16.64544326	     51.40474792	    102.97858151	    -32.15264649	     -4.05898775	    -24.36350785	     36.77610935	     88.90886987
      0.74000000	      1.44271748	      1.90286830	     -2.55266894	      0.76601304	      1.02724172	     -0.13784777	     -8.88422989	     -0.44067825	     -4.49008566	     44.15706518	      0.77068618	     -3.89966250	     -4.60611874	     -6.80909573	     20.45443290	      2.48248696	      3.09978774	     17.62813213	      0.30766895	     -3.56597021	     -5.82258594	     -6.80909573	    -11.94830314	    -20.53061244	     -7.87849576	    -19.84599005	     -7.08607126	    -16.11660196	     51.31001000	    102.99646285	    -31.32688727	     -4.35529798	    -23.77604887	     36.64513617	     89.02575095
      0.75000000	      1.53975234	      1.99162543	     -2.74532640	      0.77772688	      1.02969474	     -0.13953028	     -7.27703128	     -0.87102683	     -4.65567234	     47.42469795	      0.82771713	     -5.78573441	     -5.50764894	     -6.81550092	     19.57062287	      2.75673666	      3.16796602	     17.64394791	      0.30794498	     -2.74499642	     -6.10045794	     -6.81550092	    -12.08168389	    -20.49295500	     -7.84154198	    -19.82339240	     -7.19899046	    -15.79952924	     51.40412429	    103.02462985	    -30.50096890	     -4.62591784	    -23.55298829	     36.87913552	     89.09986680
      0.76000000	      1.38671600	      1.87082001	     -2.93826550	      0.78914866	      1.03178948	     -0.14113193	     -5.35384889	     -0.93186628	     -4.66617186	     50.56359979	      0.88250130	     -8.16843168	     -7.81988520	     -6.82702880	     19.02205949	      2.79265080	      3.33041022	     17.75516691	      0.30988612	     -2.18364197	     -6.49804813	     -6.82702880	    -11.88707173	    -20.14681893	     -7.63797410	    -19.89421751	     -7.44161364	    -15.27738073	     51.49879561	    103.06153086	    -29.59127536	     -4.93224444	    -23.01370396	     37.04733280	     89.23987881
      0.77000000	      1.36811202	      1.71050872	     -3.08554710	      0.80036145	      1.03402891	     -0.14269314	     -3.60010880	     -0.91486769	     -4.76882198	     53.47185253	      0.93325988	    -10.47674633	    -10.33839855	     -6.84406497	     18.32913047	      2.82461879	      3.71711491	     17.87100483	      0.31190787	     -1.72203846	     -7.01845106	     -6.84406497	    -11.87528760	    -19.72785235	     -7.54651081	    -19.85559714	     -7.66713318	    -14.84931598	     51.60647042	    103.07571924	    -28.65617718	     -5.40156487	    -22.23785338	     37.15778906	     89.44498942
      0.78000000	      1.52802031	      1.74378899	     -3.18517778	      0.81153762	      1.03642192	     -0.14444126	     -2.07182988	     -1.19634476	     -5.03049175	     56.26751661	      0.98205343	    -11.29145715	    -11.57689838	     -6.84991309	     17.34713883	      3.09733621	      4.10859633	     17.76516934	      0.31006070	     -0.91332670	     -7.39580204	     -6.84991309	    -12.12931414	    -19.50875303	     -7.62942437	    -19.74126950	     -7.74756012	    -14.62049539	     51.70618312	    103.09403794	    -27.62904375	     -5.69556561	    -21.91010687	     37.52762861	     89.55827428
      0.79000000	      1.40433193	      1.56424385	     -3.28009469	      0.82249365	      1.03837737	     -0.14600319	     -0.23822985	     -1.12178023	     -5.29335659	     58.76025693	      1.02555995	    -12.80312656	    -14.35372694	     -6.86734374	     16.73728536	      3.11203290	      4.56565276	     17.76526408	      0.31006235	     -0.63581662	     -8.08400841	     -6.86734374	    -11.98966938	    -18.99788531	     -7.49902168	    -19.78850863	     -7.90919009	    -14.32330718	     51.89136600	    103.11032161	    -26.58281865	     -6.18646648	    -20.93916573	     37.83630395	     89.84359064
      0.80000000	      1.43667425	      1.46912884	     -3.37571351	      0.83342622	      1.04046852	     -0.14756289	      1.37825431	     -1.18039736	     -5.62086034	     61.01558142	      1.06492279	    -13.05790260	    -16.31391224	     -6.88496900	     15.87930606	      3.21245770	      4.96849592	     17.59861719	      0.30715381	     -0.12808470	     -8.53075167	     -6.88496900	    -12.01969547	    -18.56821163	     -7.41280696	    -19.76032069	     -7.96377596	    -14.25285136	     52.05365618	    103.11075038	    -25.46468167	     -6.67906825	    -20.14820306	     38.20321505	     90.13059530
      0.81000000	      1.61247517	      1.34140048	     -3.46532121	      0.84423626	      1.04270178	     -0.14910167	      2.79325660	     -1.17076849	     -5.88704679	     62.97731280	      1.09916146	    -12.37468313	    -17.62800278	     -6.88878958	     14.84047458	      3.26495002	      5.30011533	     17.38362016	      0.30340141	      0.43478298	     -8.65456167	     -6.88878958	    -12.21500175	    -18.10428320	     -7.46925505	    -19.55374448	     -8.02662228	    -14.16338412	     52.06156659	    103.11745007	    -24.33993665	     -7.02543739	    -19.91096788	     38.69738934	     90.24619293
      0.82000000	      1.46606680	      1.20988249	     -3.57505853	      0.85497643	      1.04442366	     -0.15048885	      4.57099555	     -1.09389474	     -6.14785656	     64.66676815	      1.12864802	    -11.68049861	    -19.36235183	     -6.91618161	     14.13051638	      3.25988189	      5.44969789	     17.07859951	      0.29807779	      0.90493421	     -8.97162821	     -6.91618161	    -11.97958998	    -17.58595742	     -7.12814867	    -19.70754422	     -7.93224110	    -14.43385936	     52.31896856	    103.09958227	    -23.05404801	     -7.76344070	    -18.45569255	     38.95694092	     90.75900437
      0.83000000	      1.52427308	      1.03416873	     -3.66530295	      0.86558215	      1.04641417	     -0.15185697	      6.06502929	     -0.90987473	     -6.30040549	     65.98142575	      1.15159312	    -10.46379827	    -20.43845368	     -6.92026942	     13.14948512	      3.21108975	      5.60867350	     16.68420309	      0.29119428	      1.40610021	     -8.99144520	     -6.92026942	    -11.99391726	    -17.06265464	     -7.13615508	    -19.49495088	     -7.92632920	    -14.37477217	     52.29737196	    103.10348412	    -21.85756049	     -8.13713837	    -18.25330989	     39.54628296	     90.88915689
      0.84000000	      1.47882998	      0.86783684	     -3.74987451	      0.87614016	      1.04816436	     -0.15317708	      7.64585132	     -0.68771942	     -6.38916809	     66.99534198	      1.16928930	     -9.07748795	    -21.16416790	     -6.92480286	     12.27266653	      3.14642330	      5.65118862	     16.23314612	      0.28332185	      1.89884839	     -8.96766876	     -6.92480286	    -11.87155910	    -16.53462876	     -7.07810327	    -19.34832135	     -7.89482804	    -14.38167470	     52.26577360	    103.10080081	    -20.65673412	     -8.58047908	    -17.90891169	     40.17999278	     91.05163398
      0.85000000	      1.38266395	      0.72001509	     -3.81685271	      0.88659069	      1.04976817	     -0.15451307	      9.25089493	     -0.45312077	     -6.41091017	     67.70204990	      1.18162368	     -7.40356118	    -21.18990565	     -6.93159473	     11.45613702	      3.08720656	      5.59814736	     15.76880633	      0.27521759	      2.41940142	     -8.82572018	     -6.93159473	    -11.68747312	    -16.00957833	     -6.95945629	    -19.24004728	     -7.83274023	    -14.55379261	     52.24905885	    103.08490682	    -19.37423533	     -9.12899209	    -17.31644132	     40.79827976	     91.27623620
      0.86000000	      1.32717131	      0.48778018	     -3.84045473	      0.89699150	      1.05135496	     -0.15579616	     10.73845856	     -0.08055653	     -6.39996127	     68.05243582	      1.18773907	     -5.95079467	    -20.99287902	     -6.93671504	     10.57642552	      2.93252320	      5.62566343	     15.25498507	      0.26624972	      2.86118037	     -8.61588101	     -6.93671504	    -11.57059373	    -15.37195847	     -6.97277029	    -19.08953306	     -7.70939508	    -14.70485574	     52.21918094	    103.07027684	    -18.09360510	     -9.59223771	    -16.84868376	     41.39045348	     91.46383554
